<svg xmlns="http://www.w3.org/2000/svg" viewBox="0 0 1200 132" role="img" aria-labelledby="title desc">
  <title id="title">Je Ne Sais Quoi decorative flourish</title>
  <desc id="desc">A symmetrical gold-tan serpentine line curling around a small Venetian mask and four-pointed star.</desc>
  <g fill="none" stroke="#c9ab77" stroke-linecap="round" stroke-linejoin="round">
    <path opacity=".28" stroke-width="1" d="M42 66H412M788 66h370"/>
    <path opacity=".72" stroke-width="2.2" d="M42 66c93 0 112-34 181-34 63 0 72 48 132 48 53 0 69-33 113-33 31 0 52 13 72 29"/>
    <path opacity=".72" stroke-width="2.2" d="M1158 66c-93 0-112-34-181-34-63 0-72 48-132 48-53 0-69-33-113-33-31 0-52 13-72 29"/>
    <path opacity=".48" stroke-width="1.4" d="M89 66c47 0 61 25 99 25 40 0 47-22 79-22 28 0 42 18 67 18 22 0 35-9 48-22"/>
    <path opacity=".48" stroke-width="1.4" d="M1111 66c-47 0-61 25-99 25-40 0-47-22-79-22-28 0-42 18-67 18-22 0-35-9-48-22"/>
    <path opacity=".8" stroke-width="1.8" d="M452 42c-18-18-48-18-57 4-7 18 12 31 29 24 13-6 12-20 3-26"/>
    <path opacity=".8" stroke-width="1.8" d="M748 42c18-18 48-18 57 4 7 18-12 31-29 24-13-6-12-20-3-26"/>
    <path stroke-width="2.2" d="M529 64c18-28 47-38 71-27 24-11 53-1 71 27-18 28-47 38-71 27-24 11-53 1-71-27Z"/>
    <path opacity=".72" stroke-width="1.5" d="M542 63c14-12 29-13 43-4-11 13-27 16-43 4Zm116 0c-14-12-29-13-43-4 11 13 27 16 43 4Z"/>
    <path opacity=".5" stroke-width="1.3" d="M600 40v48M582 92c7 9 29 9 36 0"/>
  </g>
  <g fill="#c9ab77">
    <circle cx="42" cy="66" r="3"/><circle cx="1158" cy="66" r="3"/>
    <circle cx="366" cy="35" r="2.2" opacity=".65"/><circle cx="834" cy="35" r="2.2" opacity=".65"/>
    <circle cx="392" cy="100" r="1.8" opacity=".48"/><circle cx="808" cy="100" r="1.8" opacity=".48"/>
    <path d="M600 9c3 14 8 19 22 22-14 3-19 8-22 22-3-14-8-19-22-22 14-3 19-8 22-22Z"/>
    <path opacity=".7" d="M506 25c1.5 7 4 9.5 11 11-7 1.5-9.5 4-11 11-1.5-7-4-9.5-11-11 7-1.5 9.5-4 11-11Zm188 0c1.5 7 4 9.5 11 11-7 1.5-9.5 4-11 11-1.5-7-4-9.5-11-11 7-1.5 9.5-4 11-11Z"/>
  </g>
</svg>
