<svg xmlns="http://www.w3.org/2000/svg" viewBox="0 0 1200 300" role="img" aria-labelledby="title desc">
  <title id="title">Organ circulation constellation</title>
  <desc id="desc">Twenty-two gold-tan nodes circulate through branching loops around a central mask, suggesting a synthetic nervous system.</desc>
  <g fill="none" stroke="#c9ab77" stroke-linecap="round" stroke-linejoin="round">
    <ellipse cx="600" cy="150" rx="430" ry="102" opacity=".2" stroke-width="1.2"/>
    <ellipse cx="600" cy="150" rx="330" ry="72" opacity=".28" stroke-width="1.2" stroke-dasharray="3 10"/>
    <path opacity=".58" stroke-width="2" d="M75 150c79-76 137-81 194-29 50 45 83 50 132 3 42-40 77-44 126-13"/>
    <path opacity=".58" stroke-width="2" d="M1125 150c-79-76-137-81-194-29-50 45-83 50-132 3-42-40-77-44-126-13"/>
    <path opacity=".58" stroke-width="2" d="M75 150c79 76 137 81 194 29 50-45 83-50 132-3 42 40 77 44 126 13"/>
    <path opacity=".58" stroke-width="2" d="M1125 150c-79 76-137 81-194 29-50-45-83-50-132-3-42 40-77 44-126 13"/>
    <path opacity=".38" stroke-width="1.4" d="M171 94c51 8 77-41 128-35 48 5 62 46 112 38 39-6 65-43 112-30M1029 94c-51 8-77-41-128-35-48 5-62 46-112 38-39-6-65-43-112-30"/>
    <path opacity=".38" stroke-width="1.4" d="M171 206c51-8 77 41 128 35 48-5 62-46 112-38 39 6 65 43 112 30M1029 206c-51-8-77 41-128 35-48-5-62-46-112-38-39 6-65 43-112 30"/>
    <path stroke-width="2.8" d="M526 150c20-42 49-56 74-43 25-13 54 1 74 43-19 34-42 50-74 50s-55-16-74-50Z"/>
    <path opacity=".78" stroke-width="1.8" d="M541 148c15-16 31-18 47-6-13 17-30 20-47 6Zm118 0c-15-16-31-18-47-6 13 17 30 20 47 6Z"/>
    <path opacity=".52" stroke-width="1.5" d="M600 111v65M584 188c9 5 23 5 32 0"/>
    <path opacity=".42" stroke-width="1.3" d="M600 58v38M600 204v38M493 150h23M684 150h23"/>
  </g>
  <g fill="#c9ab77">
    <circle cx="75" cy="150" r="4.5"/><circle cx="1125" cy="150" r="4.5"/>
    <circle cx="142" cy="112" r="4"/><circle cx="142" cy="188" r="4"/>
    <circle cx="221" cy="88" r="4"/><circle cx="221" cy="212" r="4"/>
    <circle cx="299" cy="59" r="4"/><circle cx="299" cy="241" r="4"/>
    <circle cx="377" cy="91" r="4"/><circle cx="377" cy="209" r="4"/>
    <circle cx="451" cy="72" r="4"/><circle cx="451" cy="228" r="4"/>
    <circle cx="749" cy="72" r="4"/><circle cx="749" cy="228" r="4"/>
    <circle cx="823" cy="91" r="4"/><circle cx="823" cy="209" r="4"/>
    <circle cx="901" cy="59" r="4"/><circle cx="901" cy="241" r="4"/>
    <circle cx="979" cy="88" r="4"/><circle cx="979" cy="212" r="4"/>
    <circle cx="1058" cy="112" r="4"/><circle cx="1058" cy="188" r="4"/>
    <path d="M600 32c2.5 12 7 16.5 19 19-12 2.5-16.5 7-19 19-2.5-12-7-16.5-19-19 12-2.5 16.5-7 19-19Z"/>
    <path opacity=".7" d="M494 126c1.5 7 4 9.5 11 11-7 1.5-9.5 4-11 11-1.5-7-4-9.5-11-11 7-1.5 9.5-4 11-11Zm212 0c1.5 7 4 9.5 11 11-7 1.5-9.5 4-11 11-1.5-7-4-9.5-11-11 7-1.5 9.5-4 11-11Z"/>
  </g>
</svg>
